<?xml version="1.0" encoding="UTF-8"?>
<!DOCTYPE svg PUBLIC "-//W3C//DTD SVG 1.1//EN" "http://www.w3.org/Graphics/SVG/1.1/DTD/svg11.dtd">
<svg xmlns="http://www.w3.org/2000/svg" version="1.1" width="1024px" height="1024px" style="shape-rendering:geometricPrecision; text-rendering:geometricPrecision; image-rendering:optimizeQuality; fill-rule:evenodd; clip-rule:evenodd" xmlns:xlink="http://www.w3.org/1999/xlink">
<g><path style="opacity:1" fill="#172329" d="M 879.5,462.5 C 879.606,465.079 878.939,467.412 877.5,469.5C 869.051,471.072 860.384,471.739 851.5,471.5C 852.348,477.738 852.348,483.904 851.5,490C 856.749,491.731 862.082,491.897 867.5,490.5C 876.945,474.067 887.445,473.401 899,488.5C 902.227,502.46 896.727,510.794 882.5,513.5C 875.425,512.657 870.758,508.991 868.5,502.5C 862.802,502.596 857.135,503.096 851.5,504C 852.104,519.137 851.437,534.303 849.5,549.5C 850.748,553.725 851.581,558.058 852,562.5C 852.18,580.544 852.68,598.544 853.5,616.5C 852.898,618.608 852.565,620.775 852.5,623C 853.035,633.4 853.701,643.734 854.5,654C 852.786,664.102 847.786,672.102 839.5,678C 836.136,679.682 832.802,681.349 829.5,683C 808.81,683.581 788.143,683.581 767.5,683C 766.978,683.561 766.645,684.228 766.5,685C 780.16,700.327 794.827,714.66 810.5,728C 815.774,725.797 821.274,723.964 827,722.5C 843.09,722.259 853.09,729.926 857,745.5C 859.53,765.121 851.197,777.121 832,781.5C 813.261,779.76 802.761,769.593 800.5,751C 801.501,746.178 802.001,741.345 802,736.5C 787.505,722.597 772.838,708.93 758,695.5C 751.099,703.405 743.766,711.071 736,718.5C 731.727,730.975 734.227,741.475 743.5,750C 764.056,751.22 774.223,762.053 774,782.5C 770.775,798.804 760.775,807.471 744,808.5C 725.052,804.544 716.386,792.877 718,773.5C 719.613,766.938 722.78,761.272 727.5,756.5C 722.43,750.26 716.596,744.927 710,740.5C 701.532,747.794 692.366,754.127 682.5,759.5C 681.917,764.354 681.583,769.187 681.5,774C 684.327,776.358 687.161,778.858 690,781.5C 695.568,797.924 689.734,805.758 672.5,805C 663.156,798.849 660.989,790.682 666,780.5C 668.178,779.353 669.678,777.687 670.5,775.5C 669.981,772.399 669.147,769.399 668,766.5C 649.57,777.295 630.07,785.795 609.5,792C 527.599,815.25 447.932,809.916 370.5,776C 364.833,772.833 359.167,769.667 353.5,766.5C 352.34,770.459 352.173,774.459 353,778.5C 357.2,780.892 359.367,784.559 359.5,789.5C 358.974,801.765 352.641,806.932 340.5,805C 330.922,798.649 329.089,790.483 335,780.5C 336.351,778.981 337.851,777.648 339.5,776.5C 340.663,771.198 340.829,765.864 340,760.5C 333.252,755.876 326.419,751.376 319.5,747C 316.624,744.825 314.124,742.325 312,739.5C 305.022,743.978 299.189,749.645 294.5,756.5C 308.524,771.129 308.857,785.962 295.5,801C 281.388,811.014 267.888,810.18 255,798.5C 244.826,784.671 245.326,771.171 256.5,758C 264.06,751.94 272.727,749.274 282.5,750C 287.556,745.715 292.223,740.882 296.5,735.5C 299.704,733.55 299.871,731.55 297,729.5C 296.667,730.833 296.333,732.167 296,733.5C 295.257,731.559 295.424,729.726 296.5,728C 291.798,726.969 288.632,724.136 287,719.5C 278.267,712.1 270.267,704.1 263,695.5C 248.345,709.487 233.679,723.487 219,737.5C 219.079,742.005 219.579,746.505 220.5,751C 218.475,772.362 206.808,782.029 185.5,780C 167.995,773.462 161.161,760.962 165,742.5C 171.277,726.158 183.111,719.991 200.5,724C 203.974,725.419 207.307,726.752 210.5,728C 226.134,714.7 240.801,700.366 254.5,685C 233.968,683.778 213.301,682.778 192.5,682C 179.948,676.432 171.948,666.932 168.5,653.5C 169.326,622.542 169.826,591.542 170,560.5C 171.854,556.549 172.687,552.549 172.5,548.5C 169.932,533.349 168.932,518.182 169.5,503C 163.833,502.333 158.167,502.333 152.5,503C 143.722,514.088 134.222,514.921 124,505.5C 117.064,491.129 121.23,481.796 136.5,477.5C 144.919,478.75 150.919,483.25 154.5,491C 159.226,490.984 163.893,491.151 168.5,491.5C 169.25,485.501 169.916,479.501 170.5,473.5C 170.167,472.833 169.833,472.167 169.5,471.5C 163.551,470.708 157.551,470.208 151.5,470C 150.034,469.365 148.7,468.531 147.5,467.5C 146.269,466.349 146.269,465.183 147.5,464C 146.833,463.333 146.167,462.667 145.5,462C 154.005,459.849 162.671,458.682 171.5,458.5C 172.386,451.859 173.053,445.192 173.5,438.5C 166.185,437.585 158.852,437.418 151.5,438C 141.362,448.376 131.862,447.876 123,436.5C 118.686,427.85 120.186,420.35 127.5,414C 135.098,409.277 142.432,409.777 149.5,415.5C 151.921,418.412 153.588,421.745 154.5,425.5C 161.803,426.497 169.137,426.831 176.5,426.5C 197.14,335.746 244.807,262.913 319.5,208C 361.286,179.289 407.286,160.956 457.5,153C 471.5,138.333 485.5,123.667 499.5,109C 506.764,103.06 514.097,103.06 521.5,109C 535.135,123.97 549.135,138.636 563.5,153C 640.612,164.801 705.446,199.301 758,256.5C 791.213,293.894 816.546,336.227 834,383.5C 838.689,397.233 842.355,411.233 845,425.5C 852.109,426.812 859.276,426.812 866.5,425.5C 871.42,411.7 880.42,407.867 893.5,414C 901.948,421.56 903.115,430.06 897,439.5C 887.046,449.155 877.546,448.655 868.5,438C 861.825,437.945 855.159,438.445 848.5,439.5C 849.827,446.778 850.827,454.111 851.5,461.5C 861.015,461.173 870.348,461.506 879.5,462.5 Z M 512.5,122.5 C 513.092,125.127 513.425,127.794 513.5,130.5C 510.774,130.264 508.441,131.097 506.5,133C 496.335,145.331 485.335,156.831 473.5,167.5C 472.833,167.5 472.5,167.833 472.5,168.5C 471.078,168.709 469.745,169.209 468.5,170C 464.333,174.833 460.167,179.667 456,184.5C 450.791,189.378 445.291,193.878 439.5,198C 438.167,199.667 436.833,201.333 435.5,203C 431.619,203.35 427.952,202.85 424.5,201.5C 434.582,194.258 444.249,186.425 453.5,178C 471.778,159.053 490.112,140.053 508.5,121C 510.193,120.516 511.527,121.016 512.5,122.5 Z M 382.5,227.5 C 387.441,227.119 390.774,229.119 392.5,233.5C 390.254,238.786 386.254,240.619 380.5,239C 376.335,237.517 374.835,234.684 376,230.5C 378.166,229.269 380.333,228.269 382.5,227.5 Z M 633.5,228.5 C 636.91,228.457 640.243,228.957 643.5,230C 646.532,234.18 645.532,237.18 640.5,239C 634.694,241.024 631.027,239.19 629.5,233.5C 630.127,231.213 631.46,229.546 633.5,228.5 Z M 657.5,229.5 C 664.532,228.857 667.199,231.857 665.5,238.5C 660.015,241.182 655.182,240.182 651,235.5C 650.28,233.888 650.446,232.388 651.5,231C 653.708,230.809 655.708,230.309 657.5,229.5 Z M 458.5,240.5 C 459.598,241.601 459.765,242.934 459,244.5C 449.833,256.333 439.333,266.833 427.5,276C 421.156,279.504 415.156,283.504 409.5,288C 407,288.5 404.5,289 402,289.5C 400.624,289.316 399.791,288.649 399.5,287.5C 407.297,281.763 415.297,276.263 423.5,271C 435.064,260.595 446.73,250.429 458.5,240.5 Z M 650.5,253.5 C 663.385,253.031 676.385,253.531 689.5,255C 694.833,258 694.833,261 689.5,264C 676.106,264.169 662.773,264.169 649.5,264C 644.133,259.939 644.467,256.439 650.5,253.5 Z M 314.5,259.5 C 331.442,260.52 348.442,260.686 365.5,260C 370.314,265.731 368.98,269.231 361.5,270.5C 345.847,269.854 330.181,269.687 314.5,270C 310.086,269.252 308.586,266.752 310,262.5C 311.409,261.219 312.909,260.219 314.5,259.5 Z M 334.5,291.5 C 338.054,291.15 341.388,291.816 344.5,293.5C 346.519,299.333 344.352,302.333 338,302.5C 334.561,302.185 331.394,301.185 328.5,299.5C 327.167,297.833 327.167,296.167 328.5,294.5C 330.604,293.481 332.604,292.481 334.5,291.5 Z M 281.5,292.5 C 294.171,292.333 306.838,292.5 319.5,293C 324.833,296 324.833,299 319.5,302C 305.167,302.667 290.833,302.667 276.5,302C 273.278,300.01 272.778,297.51 275,294.5C 277.277,293.883 279.444,293.216 281.5,292.5 Z M 303.5,314.5 C 319.456,315.304 335.456,315.804 351.5,316C 354.167,319 354.167,322 351.5,325C 334.5,325.667 317.5,325.667 300.5,325C 297.176,320.075 298.176,316.575 303.5,314.5 Z M 423.5,339.5 C 425.229,343.063 424.396,346.063 421,348.5C 419.132,347.335 417.298,347.668 415.5,349.5C 414.289,350.274 414.289,351.107 415.5,352C 409.184,357.975 402.517,363.642 395.5,369C 387.82,373.506 380.487,378.506 373.5,384C 368.993,385.893 364.327,387.059 359.5,387.5C 373.597,377.919 387.597,368.086 401.5,358C 409.024,351.969 416.357,345.802 423.5,339.5 Z M 135.5,421.5 C 143.845,421.691 146.178,425.524 142.5,433C 136.818,436.07 133.152,434.57 131.5,428.5C 132.086,425.651 133.42,423.318 135.5,421.5 Z M 880.5,422.5 C 886.966,421.475 890.132,424.142 890,430.5C 885.755,437.059 881.422,437.059 877,430.5C 876.535,427.043 877.702,424.376 880.5,422.5 Z M 310.5,427.5 C 314.427,427.256 316.76,429.09 317.5,433C 315.397,438.317 312.564,438.817 309,434.5C 308.167,431.829 308.667,429.496 310.5,427.5 Z M 704.5,428.5 C 705.102,432.122 706.602,432.455 709,429.5C 710.481,430.471 711.315,431.804 711.5,433.5C 710.833,434.5 710.167,435.5 709.5,436.5C 707.958,435.699 706.292,435.366 704.5,435.5C 701.947,433.038 701.947,430.705 704.5,428.5 Z M 401.5,434.5 C 400.7,436.896 399.7,439.229 398.5,441.5C 380.914,454.585 362.914,467.085 344.5,479C 338.428,482.281 332.428,482.781 326.5,480.5C 339.649,474.764 351.982,467.764 363.5,459.5C 366.198,459.155 368.198,457.822 369.5,455.5C 380.167,448.5 390.833,441.5 401.5,434.5 Z M 134.5,489.5 C 142.464,490.114 144.631,493.78 141,500.5C 133.563,503.412 130.563,500.745 132,492.5C 133.045,491.627 133.878,490.627 134.5,489.5 Z M 880.5,489.5 C 889.518,489.639 891.851,493.472 887.5,501C 881.837,503.162 878.503,501.162 877.5,495C 878.639,493.22 879.639,491.386 880.5,489.5 Z M 251.5,555.5 C 254.275,556.312 256.442,557.979 258,560.5C 257.866,593.828 257.533,627.161 257,660.5C 253.667,665.833 250.333,665.833 247,660.5C 246.333,627.5 246.333,594.5 247,561.5C 248.332,559.34 249.832,557.34 251.5,555.5 Z M 278.5,555.5 C 282.884,557.394 285.718,560.727 287,565.5C 294.68,585.878 302.346,606.211 310,626.5C 310.333,604.5 310.667,582.5 311,560.5C 312.684,558.649 314.517,556.982 316.5,555.5C 318.483,556.982 320.316,558.649 322,560.5C 322.667,593.5 322.667,626.5 322,659.5C 317.656,666.264 313.656,665.931 310,658.5C 301.919,636.683 293.586,615.016 285,593.5C 284.905,615.168 284.905,636.835 285,658.5C 284.061,661.94 281.895,664.273 278.5,665.5C 276.473,664.307 274.973,662.64 274,660.5C 273.812,628.484 273.312,596.484 272.5,564.5C 272.944,560.402 274.944,557.402 278.5,555.5 Z M 374.5,555.5 C 377.056,556.543 379.223,558.21 381,560.5C 381.667,594.167 381.667,627.833 381,661.5C 377.471,666.738 374.137,666.738 371,661.5C 370.5,646.17 370.333,630.837 370.5,615.5C 362.833,615.5 355.167,615.5 347.5,615.5C 347.667,630.837 347.5,646.17 347,661.5C 345.622,663.213 343.955,664.547 342,665.5C 340.045,664.547 338.378,663.213 337,661.5C 336.892,627.876 336.892,594.209 337,560.5C 340.478,555.281 343.811,555.281 347,560.5C 347.333,574.833 347.667,589.167 348,603.5C 355.364,605.754 362.864,606.087 370.5,604.5C 370.333,589.83 370.5,575.163 371,560.5C 371.997,558.677 373.164,557.01 374.5,555.5 Z M 707.5,555.5 C 723.778,558.392 731.111,568.059 729.5,584.5C 727.076,587.253 724.41,587.753 721.5,586C 719.97,581.643 718.803,577.143 718,572.5C 713.8,568.286 708.966,567.452 703.5,570C 701.383,571.731 699.883,573.898 699,576.5C 698.333,582.167 698.333,587.833 699,593.5C 699.667,594.833 700.333,596.167 701,597.5C 709,604.167 717,610.833 725,617.5C 731.077,626.957 733.077,637.291 731,648.5C 725.749,662.876 715.916,667.709 701.5,663C 693.119,658.942 688.119,652.276 686.5,643C 687.329,641.184 688.163,639.351 689,637.5C 691.244,635.006 693.577,635.006 696,637.5C 697.385,642.061 699.218,646.394 701.5,650.5C 709.864,655.832 716.031,653.832 720,644.5C 722.616,634.349 720.116,625.849 712.5,619C 704.753,613.924 697.587,608.091 691,601.5C 689.478,599.259 688.145,596.926 687,594.5C 686.751,589.021 686.585,583.688 686.5,578.5C 686.849,570.631 690.182,564.464 696.5,560C 700.307,558.572 703.974,557.072 707.5,555.5 Z M 193.5,556.5 C 199.807,557.789 206.14,557.789 212.5,556.5C 223.675,558.176 230.508,564.509 233,575.5C 233.667,586.167 233.667,596.833 233,607.5C 230.928,614.573 226.428,619.406 219.5,622C 213.236,623.282 206.903,624.115 200.5,624.5C 199.775,636.48 199.275,648.48 199,660.5C 196.889,664.944 193.889,665.611 190,662.5C 188.97,660.412 188.137,658.245 187.5,656C 188.322,624.53 188.822,593.03 189,561.5C 190.707,559.963 192.207,558.296 193.5,556.5 Z M 401.5,556.5 C 412.147,557.557 422.813,557.723 433.5,557C 439.133,561.45 438.8,565.116 432.5,568C 423.922,568.182 415.422,568.682 407,569.5C 406.167,581.181 406.334,592.848 407.5,604.5C 414.127,605.141 420.793,605.308 427.5,605C 432.395,607.823 432.729,611.157 428.5,615C 421.508,615.5 414.508,615.666 407.5,615.5C 407.099,627.839 406.933,640.172 407,652.5C 415.761,653.037 424.595,653.204 433.5,653C 437.213,654.691 438.379,657.525 437,661.5C 436.097,662.701 434.931,663.535 433.5,664C 422.167,664.667 410.833,664.667 399.5,664C 397.951,662.786 396.785,661.286 396,659.5C 395.333,626.833 395.333,594.167 396,561.5C 397.704,559.627 399.537,557.96 401.5,556.5 Z M 453.5,556.5 C 456.642,556.799 458.809,558.466 460,561.5C 460.667,594.833 460.667,628.167 460,661.5C 457.068,666.373 453.735,666.706 450,662.5C 449.819,629.81 449.319,597.144 448.5,564.5C 448.71,560.805 450.377,558.138 453.5,556.5 Z M 547.5,556.5 C 564.124,556.289 573.457,564.455 575.5,581C 575.578,602.78 575.412,624.613 575,646.5C 569.168,663.436 558.001,668.603 541.5,662C 536.454,658.288 532.954,653.454 531,647.5C 530.333,622.833 530.333,598.167 531,573.5C 533.314,564.687 538.814,559.02 547.5,556.5 Z M 648.5,556.5 C 661.832,555.245 670.665,560.911 675,573.5C 675.667,598.5 675.667,623.5 675,648.5C 666.888,666.141 654.721,669.641 638.5,659C 634.079,653.989 631.412,648.156 630.5,641.5C 631.314,617.857 631.814,594.19 632,570.5C 635.561,563.431 641.061,558.764 648.5,556.5 Z M 742.5,556.5 C 755.503,557.64 768.503,557.807 781.5,557C 785.763,559.647 786.43,562.981 783.5,567C 778.292,568.397 772.959,568.897 767.5,568.5C 766.345,597.246 766.345,625.912 767.5,654.5C 768.099,659.747 765.932,663.414 761,665.5C 758.402,664.32 756.736,662.32 756,659.5C 755.524,629.492 755.524,599.492 756,569.5C 750.805,568.92 745.638,568.087 740.5,567C 736.265,562.543 736.932,559.043 742.5,556.5 Z M 807.5,556.5 C 811.257,556.071 814.757,556.737 818,558.5C 820.75,565.837 822.917,573.337 824.5,581C 826.247,594.322 828.413,607.822 831,621.5C 832.363,633.733 833.863,645.733 835.5,657.5C 835.456,661.554 833.456,664.221 829.5,665.5C 827.851,664.352 826.351,663.019 825,661.5C 823.615,652.898 822.448,644.232 821.5,635.5C 814.825,635.334 808.158,635.5 801.5,636C 798.868,644.275 797.035,652.775 796,661.5C 789.872,667.039 786.038,665.539 784.5,657C 789.574,627.816 794.741,598.649 800,569.5C 800.969,564.222 803.469,559.888 807.5,556.5 Z M 477.5,557.5 C 507.565,551.406 521.565,563.573 519.5,594C 519.191,599.841 517.691,605.341 515,610.5C 512.457,613.701 509.957,616.867 507.5,620C 512.527,632.582 516.861,645.416 520.5,658.5C 518.889,664.727 515.389,666.394 510,663.5C 505.926,649.779 501.759,636.112 497.5,622.5C 493.563,622.207 489.73,622.54 486,623.5C 485.667,636.167 485.333,648.833 485,661.5C 481.018,667.169 477.685,666.835 475,660.5C 474.333,627.5 474.333,594.5 475,561.5C 475.662,560.016 476.496,558.683 477.5,557.5 Z M 602.5,563.5 C 618.351,563.182 625.184,570.849 623,586.5C 620.447,591.626 616.614,592.793 611.5,590C 611.774,586.435 610.94,582.935 609,579.5C 603.742,575.021 599.742,576.021 597,582.5C 596.007,586.442 595.34,590.442 595,594.5C 594.333,611.5 594.333,628.5 595,645.5C 599.333,653.5 603.667,653.5 608,645.5C 609,641.5 610,637.5 611,633.5C 611.689,632.643 612.522,631.977 613.5,631.5C 626.854,640.441 627.854,650.608 616.5,662C 601.312,670.061 590.146,666.228 583,650.5C 582.833,638.833 582.667,627.167 582.5,615.5C 582.362,602.767 582.862,590.1 584,577.5C 588.387,570.255 594.553,565.589 602.5,563.5 Z M 668.5,704.5 C 674.021,705.189 677.021,708.356 677.5,714C 676.167,720.666 672.167,723.333 665.5,722C 661.673,718.692 660.506,714.526 662,709.5C 663.805,707.174 665.972,705.508 668.5,704.5 Z M 344.5,705.5 C 353.815,704.738 357.648,709.071 356,718.5C 351.075,723.74 346.409,723.406 342,717.5C 340.888,713.019 341.721,709.019 344.5,705.5 Z M 386.5,727.5 C 394.301,728.119 397.135,732.119 395,739.5C 388.623,744.913 384.123,743.413 381.5,735C 381.844,731.511 383.51,729.011 386.5,727.5 Z M 625.5,727.5 C 633.328,726.493 636.494,729.826 635,737.5C 630.129,744.367 625.795,744.033 622,736.5C 621.481,732.868 622.647,729.868 625.5,727.5 Z M 187.5,735.5 C 202.424,734.592 208.924,741.592 207,756.5C 201.578,766.864 193.744,769.364 183.5,764C 174.626,752.955 175.959,743.455 187.5,735.5 Z M 824.5,735.5 C 842.057,736.282 847.89,744.948 842,761.5C 831.921,771.322 822.921,770.322 815,758.5C 812.14,748.232 815.307,740.565 824.5,735.5 Z M 583.5,740.5 C 591.732,743.585 593.565,748.918 589,756.5C 585.045,760.32 580.878,760.487 576.5,757C 572.683,748.807 575.016,743.307 583.5,740.5 Z M 431.5,741.5 C 438.888,741.043 443.221,744.543 444.5,752C 444.094,758.411 440.761,761.078 434.5,760C 425.871,754.72 424.871,748.553 431.5,741.5 Z M 508.5,752.5 C 512.994,752.163 515.828,754.163 517,758.5C 518.871,764.292 516.871,767.959 511,769.5C 504.821,767.67 502.488,763.67 504,757.5C 505.059,755.341 506.559,753.674 508.5,752.5 Z M 272.5,762.5 C 287.634,762.458 293.801,769.792 291,784.5C 286.39,793.595 279.223,796.429 269.5,793C 261.711,787.706 259.545,780.54 263,771.5C 265.406,767.592 268.572,764.592 272.5,762.5 Z M 739.5,762.5 C 749.921,761.099 757.421,765.099 762,774.5C 762.608,788.223 756.108,795.057 742.5,795C 737.86,794.097 734.36,791.597 732,787.5C 728.017,776.98 730.517,768.646 739.5,762.5 Z M 676.5,785.5 C 682.144,786.352 683.644,789.352 681,794.5C 676.837,797.18 674.003,796.014 672.5,791C 673.007,788.455 674.341,786.621 676.5,785.5 Z M 342.5,786.5 C 346.807,785.649 349.474,787.316 350.5,791.5C 348.786,796.675 345.786,797.675 341.5,794.5C 340.025,791.557 340.358,788.891 342.5,786.5 Z"/></g>
<g><path style="opacity:1" fill="#48cb7f" d="M 512.5,122.5 C 517.072,125.563 521.239,129.23 525,133.5C 543.439,153.941 562.606,173.774 582.5,193C 586.537,196.379 591.037,198.879 596,200.5C 599.181,205.415 598.014,209.249 592.5,212C 571.711,215.47 553.045,210.803 536.5,198C 528.204,191.373 520.204,184.373 512.5,177C 510.833,176.333 509.167,176.333 507.5,177C 494.919,191.946 479.585,202.946 461.5,210C 457.036,211.019 452.536,211.852 448,212.5C 439.528,211.13 431.028,209.964 422.5,209C 418.969,205.806 419.635,203.306 424.5,201.5C 427.952,202.85 431.619,203.35 435.5,203C 436.833,201.333 438.167,199.667 439.5,198C 445.291,193.878 450.791,189.378 456,184.5C 460.167,179.667 464.333,174.833 468.5,170C 469.745,169.209 471.078,168.709 472.5,168.5C 469.835,171.335 467.335,174.335 465,177.5C 462.226,183.618 464.059,187.618 470.5,189.5C 483.97,183.888 484.97,176.555 473.5,167.5C 485.335,156.831 496.335,145.331 506.5,133C 508.441,131.097 510.774,130.264 513.5,130.5C 513.425,127.794 513.092,125.127 512.5,122.5 Z"/></g>
<g><path style="opacity:1" fill="#162528" d="M 528.5,155.5 C 537.133,156.77 537.799,160.103 530.5,165.5C 525.383,162.713 524.717,159.379 528.5,155.5 Z"/></g>
<g><path style="opacity:0.114" fill="#7e8483" d="M 695.5,159.5 C 696.833,160.167 696.833,160.167 695.5,159.5 Z"/></g>
<g><path style="opacity:0.027" fill="#73786f" d="M 318.5,162.5 C 319.833,163.167 319.833,163.167 318.5,162.5 Z"/></g>
<g><path style="opacity:0.055" fill="#90948e" d="M 692.5,168.5 C 691.833,167.167 691.833,167.167 692.5,168.5 Z"/></g>
<g><path style="opacity:1" fill="#172429" d="M 473.5,167.5 C 484.97,176.555 483.97,183.888 470.5,189.5C 464.059,187.618 462.226,183.618 465,177.5C 467.335,174.335 469.835,171.335 472.5,168.5C 472.5,167.833 472.833,167.5 473.5,167.5 Z"/></g>
<g><path style="opacity:0.165" fill="#81857f" d="M 692.5,168.5 C 693.167,168.5 693.5,168.833 693.5,169.5C 693.167,169.167 692.833,168.833 692.5,168.5 Z"/></g>
<g><path style="opacity:0.133" fill="#7f837c" d="M 693.5,169.5 C 694.167,169.5 694.5,169.833 694.5,170.5C 694.167,170.167 693.833,169.833 693.5,169.5 Z"/></g>
<g><path style="opacity:0.239" fill="#8d8e8b" d="M 694.5,170.5 C 695.833,171.167 695.833,171.167 694.5,170.5 Z"/></g>
<g><path style="opacity:1" fill="#2fd9cd" d="M 582.5,170.5 C 672.323,193.193 740.823,244.193 788,323.5C 808.505,357.679 823.338,394.179 832.5,433C 828.517,433.64 824.517,434.14 820.5,434.5C 788.147,433.499 755.814,431.999 723.5,430C 720.117,423.112 714.784,418.612 707.5,416.5C 699.565,417.438 694.898,421.772 693.5,429.5C 676.803,429.425 660.136,429.592 643.5,430C 634.082,426.792 625.749,421.792 618.5,415C 633.594,415.177 648.261,412.844 662.5,408C 668.254,404.877 673.087,400.711 677,395.5C 679.878,387.133 677.712,380.299 670.5,375C 644.738,358.781 620.404,340.615 597.5,320.5C 608.156,318.419 618.49,315.252 628.5,311C 644.674,301.9 646.34,290.9 633.5,278C 612.106,262.63 591.439,246.297 571.5,229C 581.005,228.25 590.339,226.583 599.5,224C 607.295,221.203 612.795,216.036 616,208.5C 616.714,203.581 615.381,199.247 612,195.5C 604.5,190 597,184.5 589.5,179C 586.553,176.564 584.22,173.731 582.5,170.5 Z M 633.5,228.5 C 631.46,229.546 630.127,231.213 629.5,233.5C 631.027,239.19 634.694,241.024 640.5,239C 645.532,237.18 646.532,234.18 643.5,230C 640.243,228.957 636.91,228.457 633.5,228.5 Z M 657.5,229.5 C 655.708,230.309 653.708,230.809 651.5,231C 650.446,232.388 650.28,233.888 651,235.5C 655.182,240.182 660.015,241.182 665.5,238.5C 667.199,231.857 664.532,228.857 657.5,229.5 Z M 650.5,253.5 C 644.467,256.439 644.133,259.939 649.5,264C 662.773,264.169 676.106,264.169 689.5,264C 694.833,261 694.833,258 689.5,255C 676.385,253.531 663.385,253.031 650.5,253.5 Z"/></g>
<g><path style="opacity:1" fill="#2fd9cd" d="M 433.5,171.5 C 434.478,171.811 435.145,172.478 435.5,173.5C 434.687,174.814 433.687,175.981 432.5,177C 423.667,183.833 414.833,190.667 406,197.5C 402.554,203.383 402.888,209.05 407,214.5C 412.945,221.391 420.445,225.557 429.5,227C 435.862,227.855 442.196,228.855 448.5,230C 428.644,247.862 407.644,264.195 385.5,279C 377.939,286.183 377.105,294.017 383,302.5C 387.879,309.033 394.379,313.199 402.5,315C 409.394,316.718 416.394,317.718 423.5,318C 424.308,318.308 424.975,318.808 425.5,319.5C 401.139,340.851 375.139,360.018 347.5,377C 341.473,383.769 340.973,390.936 346,398.5C 357.325,409.154 370.658,413.821 386,412.5C 391.842,413.056 397.675,413.723 403.5,414.5C 395.469,420.181 387.136,425.347 378.5,430C 361.814,430.714 345.147,430.38 328.5,429C 322.527,418.898 314.194,416.231 303.5,421C 300.347,423.805 298.681,427.305 298.5,431.5C 262.512,432.872 226.512,433.872 190.5,434.5C 207.085,355.807 245.419,289.973 305.5,237C 343.579,206.459 386.246,184.626 433.5,171.5 Z M 382.5,227.5 C 380.333,228.269 378.166,229.269 376,230.5C 374.835,234.684 376.335,237.517 380.5,239C 386.254,240.619 390.254,238.786 392.5,233.5C 390.774,229.119 387.441,227.119 382.5,227.5 Z M 314.5,259.5 C 312.909,260.219 311.409,261.219 310,262.5C 308.586,266.752 310.086,269.252 314.5,270C 330.181,269.687 345.847,269.854 361.5,270.5C 368.98,269.231 370.314,265.731 365.5,260C 348.442,260.686 331.442,260.52 314.5,259.5 Z M 334.5,291.5 C 332.604,292.481 330.604,293.481 328.5,294.5C 327.167,296.167 327.167,297.833 328.5,299.5C 331.394,301.185 334.561,302.185 338,302.5C 344.352,302.333 346.519,299.333 344.5,293.5C 341.388,291.816 338.054,291.15 334.5,291.5 Z M 281.5,292.5 C 279.444,293.216 277.277,293.883 275,294.5C 272.778,297.51 273.278,300.01 276.5,302C 290.833,302.667 305.167,302.667 319.5,302C 324.833,299 324.833,296 319.5,293C 306.838,292.5 294.171,292.333 281.5,292.5 Z M 303.5,314.5 C 298.176,316.575 297.176,320.075 300.5,325C 317.5,325.667 334.5,325.667 351.5,325C 354.167,322 354.167,319 351.5,316C 335.456,315.804 319.456,315.304 303.5,314.5 Z"/></g>
<g><path style="opacity:0.239" fill="#898981" d="M 698.5,173.5 C 699.833,174.167 699.833,174.167 698.5,173.5 Z"/></g>
<g><path style="opacity:0.055" fill="#909088" d="M 700.5,173.5 C 701.833,174.167 701.833,174.167 700.5,173.5 Z"/></g>
<g><path style="opacity:0.325" fill="#838385" d="M 315.5,175.5 C 314.833,174.167 314.833,174.167 315.5,175.5 Z"/></g>
<g><path style="opacity:0.031" fill="#918f91" d="M 315.5,175.5 C 316.833,176.167 316.833,176.167 315.5,175.5 Z"/></g>
<g><path style="opacity:0.404" fill="#8c9688" d="M 751.5,190.5 C 752.833,191.167 752.833,191.167 751.5,190.5 Z"/></g>
<g><path style="opacity:0.137" fill="#8f9995" d="M 263.5,191.5 C 264.833,192.167 264.833,192.167 263.5,191.5 Z"/></g>
<g><path style="opacity:0.439" fill="#86918a" d="M 749.5,192.5 C 750.833,193.167 750.833,193.167 749.5,192.5 Z"/></g>
<g><path style="opacity:1" fill="#48cb7f" d="M 456.5,293.5 C 456.587,290.402 456.087,290.068 455,292.5C 454.667,292.167 454.333,291.833 454,291.5C 450.021,292.406 446.521,294.239 443.5,297C 444.448,297.483 445.448,297.649 446.5,297.5C 436.019,302.183 425.019,303.349 413.5,301C 407.988,300.132 402.655,298.466 397.5,296C 393.223,292.045 393.89,289.212 399.5,287.5C 399.791,288.649 400.624,289.316 402,289.5C 404.5,289 407,288.5 409.5,288C 415.156,283.504 421.156,279.504 427.5,276C 439.333,266.833 449.833,256.333 459,244.5C 459.765,242.934 459.598,241.601 458.5,240.5C 466.787,230.376 476.454,221.876 487.5,215C 493.855,209.643 499.855,203.977 505.5,198C 508.03,196.578 510.697,196.245 513.5,197C 522.292,206.132 531.959,214.132 542.5,221C 564.826,242.322 587.826,262.988 611.5,283C 615.48,284.966 619.48,286.966 623.5,289C 624.574,289.739 625.241,290.739 625.5,292C 620.472,298.287 613.805,301.62 605.5,302C 595.347,303.125 585.347,302.458 575.5,300C 553.267,291.876 533.934,279.209 517.5,262C 514.64,259.64 511.64,257.473 508.5,255.5C 498.941,264.563 488.941,273.063 478.5,281C 473.551,285.141 467.884,287.641 461.5,288.5C 461.646,290.942 460.813,291.609 459,290.5C 458.148,291.571 457.315,292.571 456.5,293.5 Z"/></g>
<g><path style="opacity:0.09" fill="#778078" d="M 273.5,198.5 C 274.833,199.167 274.833,199.167 273.5,198.5 Z"/></g>
<g><path style="opacity:0.255" fill="#808887" d="M 256.5,199.5 C 257.833,200.167 257.833,200.167 256.5,199.5 Z"/></g>
<g><path style="opacity:0.22" fill="#7f867f" d="M 275.5,199.5 C 276.833,200.167 276.833,200.167 275.5,199.5 Z"/></g>
<g><path style="opacity:0.439" fill="#868e8b" d="M 744.5,199.5 C 745.833,200.167 745.833,200.167 744.5,199.5 Z"/></g>
<g><path style="opacity:0.404" fill="#8c9795" d="M 762.5,199.5 C 763.833,200.167 763.833,200.167 762.5,199.5 Z"/></g>
<g><path style="opacity:0.039" fill="#91968d" d="M 742.5,202.5 C 743.833,203.167 743.833,203.167 742.5,202.5 Z"/></g>
<g><path style="opacity:0.243" fill="#777b74" d="M 762.5,203.5 C 763.833,204.167 763.833,204.167 762.5,203.5 Z"/></g>
<g><path style="opacity:0.298" fill="#808a7f" d="M 256.5,204.5 C 257.833,205.167 257.833,205.167 256.5,204.5 Z"/></g>
<g><path style="opacity:0.263" fill="#787c75" d="M 762.5,204.5 C 761.833,205.167 761.833,205.167 762.5,204.5 Z"/></g>
<g><path style="opacity:0.176" fill="#7b8480" d="M 275.5,205.5 C 276.833,206.167 276.833,206.167 275.5,205.5 Z"/></g>
<g><path style="opacity:0.298" fill="#888c91" d="M 259.5,206.5 C 260.833,207.167 260.833,207.167 259.5,206.5 Z"/></g>
<g><path style="opacity:0.31" fill="#878f8e" d="M 275.5,206.5 C 274.833,207.167 274.833,207.167 275.5,206.5 Z"/></g>
<g><path style="opacity:0.259" fill="#82868b" d="M 261.5,207.5 C 262.833,208.167 262.833,208.167 261.5,207.5 Z"/></g>
<g><path style="opacity:0.329" fill="#7b817e" d="M 748.5,208.5 C 749.833,209.167 749.833,209.167 748.5,208.5 Z"/></g>
<g><path style="opacity:0.267" fill="#838888" d="M 264.5,212.5 C 265.833,213.167 265.833,213.167 264.5,212.5 Z"/></g>
<g><path style="opacity:0.306" fill="#7f8882" d="M 214.5,227.5 C 215.833,228.167 215.833,228.167 214.5,227.5 Z"/></g>
<g><path style="opacity:0.008" fill="#929a94" d="M 217.5,227.5 C 218.833,228.167 218.833,228.167 217.5,227.5 Z"/></g>
<g><path style="opacity:0.349" fill="#8b918c" d="M 219.5,228.5 C 220.833,229.167 220.833,229.167 219.5,228.5 Z"/></g>
<g><path style="opacity:0.027" fill="#727a82" d="M 209.5,237.5 C 210.833,238.167 210.833,238.167 209.5,237.5 Z"/></g>
<g><path style="opacity:1" fill="#172429" d="M 527.5,235.5 C 530.301,236.735 532.968,238.235 535.5,240C 546.415,253.253 559.415,263.919 574.5,272C 577.22,275.818 576.553,279.151 572.5,282C 571.5,282.667 570.5,282.667 569.5,282C 552.263,272.431 537.096,260.264 524,245.5C 523.182,241.469 524.349,238.136 527.5,235.5 Z"/></g>
<g><path style="opacity:0.353" fill="#85948e" d="M 220.5,240.5 C 221.833,241.167 221.833,241.167 220.5,240.5 Z"/></g>
<g><path style="opacity:0.341" fill="#839492" d="M 213.5,241.5 C 214.833,242.167 214.833,242.167 213.5,241.5 Z"/></g>
<g><path style="opacity:0.212" fill="#8e8f8e" d="M 804.5,251.5 C 805.833,252.167 805.833,252.167 804.5,251.5 Z"/></g>
<g><path style="opacity:0.027" fill="#717e7d" d="M 212.5,252.5 C 213.833,253.167 213.833,253.167 212.5,252.5 Z"/></g>
<g><path style="opacity:1" fill="#172428" d="M 470.5,252.5 C 475.655,253.797 477.488,257.13 476,262.5C 469.463,269.03 462.296,274.864 454.5,280C 446.93,280.773 444.097,277.607 446,270.5C 455.192,265.795 463.359,259.795 470.5,252.5 Z"/></g>
<g><path style="opacity:0.133" fill="#768282" d="M 212.5,253.5 C 211.833,254.167 211.833,254.167 212.5,253.5 Z"/></g>
<g><path style="opacity:0.29" fill="#8c9793" d="M 799.5,254.5 C 800.833,255.167 800.833,255.167 799.5,254.5 Z"/></g>
<g><path style="opacity:0.067" fill="#909a98" d="M 797.5,256.5 C 798.833,257.167 798.833,257.167 797.5,256.5 Z"/></g>
<g><path style="opacity:0.212" fill="#8e9896" d="M 810.5,257.5 C 811.833,258.167 811.833,258.167 810.5,257.5 Z"/></g>
<g><path style="opacity:0.09" fill="#748581" d="M 222.5,258.5 C 223.833,259.167 223.833,259.167 222.5,258.5 Z"/></g>
<g><path style="opacity:0.176" fill="#788783" d="M 222.5,260.5 C 223.833,261.167 223.833,261.167 222.5,260.5 Z"/></g>
<g><path style="opacity:0.373" fill="#86888d" d="M 208.5,261.5 C 209.833,262.167 209.833,262.167 208.5,261.5 Z"/></g>
<g><path style="opacity:0.263" fill="#7c8185" d="M 221.5,262.5 C 222.833,263.167 222.833,263.167 221.5,262.5 Z"/></g>
<g><path style="opacity:0.047" fill="#727575" d="M 221.5,263.5 C 220.833,264.167 220.833,264.167 221.5,263.5 Z"/></g>
<g><path style="opacity:0.09" fill="#797a7b" d="M 809.5,263.5 C 810.833,264.167 810.833,264.167 809.5,263.5 Z"/></g>
<g><path style="opacity:0.294" fill="#87867f" d="M 802.5,267.5 C 803.833,268.167 803.833,268.167 802.5,267.5 Z"/></g>
<g><path style="opacity:1" fill="#48cb7f" d="M 359.5,387.5 C 364.327,387.059 368.993,385.893 373.5,384C 380.487,378.506 387.82,373.506 395.5,369C 402.517,363.642 409.184,357.975 415.5,352C 414.289,351.107 414.289,350.274 415.5,349.5C 417.298,347.668 419.132,347.335 421,348.5C 424.396,346.063 425.229,343.063 423.5,339.5C 434.301,330.536 444.968,321.369 455.5,312C 460.772,308.243 466.439,305.243 472.5,303C 482.179,295.167 492.179,287.834 502.5,281C 504.806,278.939 506.973,276.772 509,274.5C 518.553,283.354 528.387,291.854 538.5,300C 549.926,304.914 560.926,310.581 571.5,317C 582.514,329.524 595.18,340.191 609.5,349C 625.661,363.463 642.827,376.297 661,387.5C 661.265,389.163 660.765,390.663 659.5,392C 642.377,399.076 624.71,400.409 606.5,396C 586.835,390.669 568.502,382.336 551.5,371C 538.256,361.425 525.922,350.758 514.5,339C 512.217,336.81 509.551,336.143 506.5,337C 492.297,352.405 476.297,365.405 458.5,376C 457.663,377.011 457.33,378.178 457.5,379.5C 456.127,379.343 454.793,379.51 453.5,380C 431.55,392.728 407.55,398.395 381.5,397C 375.059,395.742 368.725,394.075 362.5,392C 359.741,391.166 358.741,389.666 359.5,387.5 Z"/></g>
<g><path style="opacity:1" fill="#17242a" d="M 695.5,278.5 C 699.833,278.5 704.167,278.5 708.5,278.5C 706.441,285.93 709.107,289.097 716.5,288C 723.914,282.792 728.414,284.625 730,293.5C 727.456,295.002 725.29,296.836 723.5,299C 724.078,300.811 724.578,302.645 725,304.5C 728.745,305.297 732.579,305.797 736.5,306C 737.715,310.156 737.548,314.322 736,318.5C 733.242,319.117 730.409,319.284 727.5,319C 725.416,320.501 724.083,322.501 723.5,325C 725.28,327.784 727.447,330.284 730,332.5C 729.247,336.935 726.58,339.935 722,341.5C 719.704,340.372 717.871,338.705 716.5,336.5C 714.041,335.357 711.707,335.69 709.5,337.5C 710.535,347.948 706.369,350.948 697,346.5C 696.667,343.5 696.333,340.5 696,337.5C 694.263,335.375 692.096,334.542 689.5,335C 687.284,337.553 684.784,339.72 682,341.5C 678.167,340.333 675.667,337.833 674.5,334C 676.28,331.216 678.447,328.716 681,326.5C 681.458,323.904 680.625,321.737 678.5,320C 667.396,320.805 664.396,316.138 669.5,306C 672.758,305.788 675.924,305.288 679,304.5C 679.667,302.167 679.667,299.833 679,297.5C 673.77,291.42 674.936,287.087 682.5,284.5C 685.642,285.291 688.309,286.957 690.5,289.5C 693.474,289.146 695.474,287.646 696.5,285C 695.923,282.863 695.59,280.696 695.5,278.5 Z"/></g>
<g><path style="opacity:0.306" fill="#7e8679" d="M 182.5,294.5 C 183.833,295.167 183.833,295.167 182.5,294.5 Z"/></g>
<g><path style="opacity:1" fill="#21694e" d="M 456.5,293.5 C 453.47,295.403 450.137,296.737 446.5,297.5C 445.448,297.649 444.448,297.483 443.5,297C 446.521,294.239 450.021,292.406 454,291.5C 454.333,291.833 454.667,292.167 455,292.5C 456.087,290.068 456.587,290.402 456.5,293.5 Z"/></g>
<g><path style="opacity:1" fill="#2ed9cd" d="M 699.5,297.5 C 712.599,298.034 717.766,304.701 715,317.5C 708.347,327.592 700.681,328.592 692,320.5C 686.629,310.005 689.129,302.338 699.5,297.5 Z"/></g>
<g><path style="opacity:0.243" fill="#778680" d="M 179.5,298.5 C 180.833,299.167 180.833,299.167 179.5,298.5 Z"/></g>
<g><path style="opacity:0.133" fill="#767e7a" d="M 192.5,301.5 C 193.833,302.167 193.833,302.167 192.5,301.5 Z"/></g>
<g><path style="opacity:0.365" fill="#838785" d="M 193.5,304.5 C 194.833,305.167 194.833,305.167 193.5,304.5 Z"/></g>
<g><path style="opacity:0.243" fill="#7b8480" d="M 191.5,307.5 C 192.833,308.167 192.833,308.167 191.5,307.5 Z"/></g>
<g><path style="opacity:0.373" fill="#868f89" d="M 191.5,308.5 C 190.833,309.167 190.833,309.167 191.5,308.5 Z"/></g>
<g><path style="opacity:0.345" fill="#8d968e" d="M 190.5,309.5 C 189.833,310.167 189.833,310.167 190.5,309.5 Z"/></g>
<g><path style="opacity:0.373" fill="#879088" d="M 181.5,310.5 C 182.833,311.167 182.833,311.167 181.5,310.5 Z"/></g>
<g><path style="opacity:1" fill="#172328" d="M 486.5,319.5 C 490.855,321.403 492.355,324.736 491,329.5C 486.167,335.667 480.667,341.167 474.5,346C 455.965,359.686 436.131,371.186 415,380.5C 409.159,378.666 407.659,375.166 410.5,370C 426.153,362.175 441.486,353.842 456.5,345C 466.138,338.693 474.471,331.026 481.5,322C 483.315,321.243 484.981,320.41 486.5,319.5 Z"/></g>
<g><path style="opacity:1" fill="#172329" d="M 262.5,336.5 C 264.467,336.261 266.301,336.594 268,337.5C 266.239,343.258 268.073,347.424 273.5,350C 274.5,350.667 275.5,350.667 276.5,350C 278.875,344.096 282.542,343.096 287.5,347C 290.29,349.21 291.123,352.044 290,355.5C 287.982,357.35 286.149,359.35 284.5,361.5C 285.034,363.614 286.034,365.448 287.5,367C 290.817,367.498 294.15,367.665 297.5,367.5C 297.826,371.884 297.492,376.217 296.5,380.5C 293.489,381.541 290.489,381.708 287.5,381C 282.302,387.011 282.802,392.177 289,396.5C 287.969,400.893 285.303,404.226 281,406.5C 278.715,404.052 276.215,401.719 273.5,399.5C 266.727,400.498 264.727,404.164 267.5,410.5C 266.96,411.748 266.293,412.915 265.5,414C 261.525,413.983 257.525,413.816 253.5,413.5C 253.797,409.233 253.464,405.066 252.5,401C 247.136,398.076 243.636,399.576 242,405.5C 241.275,406.059 240.442,406.392 239.5,406.5C 236.257,404.765 233.423,402.432 231,399.5C 230.333,398.5 230.333,397.5 231,396.5C 233.795,394.707 236.295,392.54 238.5,390C 236.583,387.502 234.916,384.835 233.5,382C 230.118,381.824 226.785,381.324 223.5,380.5C 222.561,376.235 222.228,371.902 222.5,367.5C 226.216,368.319 229.882,368.319 233.5,367.5C 234.976,365.58 235.976,363.413 236.5,361C 229.073,353.639 230.073,347.805 239.5,343.5C 242.255,345.01 244.588,347.01 246.5,349.5C 248.795,348.568 251.129,347.735 253.5,347C 254.451,343.943 254.784,340.777 254.5,337.5C 257.385,337.806 260.052,337.473 262.5,336.5 Z"/></g>
<g><path style="opacity:1" fill="#172329" d="M 753.5,337.5 C 757.846,337.334 762.179,337.501 766.5,338C 766.964,340.405 767.131,342.905 767,345.5C 769.414,347.291 771.914,348.957 774.5,350.5C 776.65,348.851 778.65,347.018 780.5,345C 787.825,344.233 790.658,347.399 789,354.5C 787.104,355.68 785.604,357.18 784.5,359C 785.536,361.774 786.369,364.607 787,367.5C 790.398,368.034 793.898,368.034 797.5,367.5C 797.666,371.846 797.499,376.179 797,380.5C 793.606,381.456 790.106,381.789 786.5,381.5C 786.233,384.875 785.233,388.042 783.5,391C 785.296,393.633 787.296,396.133 789.5,398.5C 787.526,402.308 784.692,405.308 781,407.5C 771.559,397.203 766.393,399.036 765.5,413C 761.833,413.667 758.167,413.667 754.5,413C 753.54,409.27 753.207,405.437 753.5,401.5C 750.933,401.145 748.433,400.479 746,399.5C 743.513,401.271 741.346,403.438 739.5,406C 738.5,406.667 737.5,406.667 736.5,406C 734.131,403.43 732.131,400.596 730.5,397.5C 732.897,394.988 735.231,392.488 737.5,390C 736.47,387.44 735.303,384.94 734,382.5C 730.606,381.544 727.106,381.211 723.5,381.5C 723.5,376.833 723.5,372.167 723.5,367.5C 731.721,370.756 735.554,368.089 735,359.5C 733.167,357 731.333,354.5 729.5,352C 734.354,343.645 739.188,343.479 744,351.5C 746.916,349.959 749.749,348.293 752.5,346.5C 753.484,343.572 753.817,340.572 753.5,337.5 Z"/></g>
<g><path style="opacity:1" fill="#172428" d="M 560.5,339.5 C 562.989,339.298 565.323,339.798 567.5,341C 579.105,352.476 592.439,361.476 607.5,368C 608.959,372.925 607.459,376.759 603,379.5C 586.648,370.161 570.981,359.827 556,348.5C 555.333,346.5 555.333,344.5 556,342.5C 557.652,341.601 559.152,340.601 560.5,339.5 Z"/></g>
<g><path style="opacity:1" fill="#48cb7f" d="M 326.5,480.5 C 332.428,482.781 338.428,482.281 344.5,479C 362.914,467.085 380.914,454.585 398.5,441.5C 399.7,439.229 400.7,436.896 401.5,434.5C 402.833,434.167 402.833,433.833 401.5,433.5C 412.431,425.02 423.431,416.52 434.5,408C 452.602,396.627 470.602,385.294 488.5,374C 495.622,368.135 502.622,362.302 509.5,356.5C 511.266,357.091 512.933,357.924 514.5,359C 522.771,365.598 530.771,372.598 538.5,380C 552.7,388.931 567.033,397.598 581.5,406C 588.82,411.655 595.82,417.655 602.5,424C 613.338,429.843 623.338,436.843 632.5,445C 646.441,453.942 660.108,463.276 673.5,473C 679.318,475.41 684.985,478.077 690.5,481C 693.859,483.034 694.192,485.368 691.5,488C 679.239,494.045 666.239,496.879 652.5,496.5C 638.534,496.699 624.867,494.865 611.5,491C 581.072,480.62 553.405,465.287 528.5,445C 522.617,438.614 516.284,432.781 509.5,427.5C 501.685,434.148 494.018,440.981 486.5,448C 469.436,460.532 451.436,471.532 432.5,481C 403.965,493.929 373.965,497.929 342.5,493C 335.052,491.446 328.718,488.113 323.5,483C 324.373,481.955 325.373,481.122 326.5,480.5 Z"/></g>
<g><path style="opacity:1" fill="#2fd9cd" d="M 257.5,357.5 C 270.562,359.063 276.395,366.397 275,379.5C 271.602,385.874 266.269,389.541 259,390.5C 245.527,386.017 241.861,377.35 248,364.5C 250.505,361.147 253.671,358.814 257.5,357.5 Z"/></g>
<g><path style="opacity:1" fill="#2ed9cd" d="M 757.5,357.5 C 771.8,358.641 777.634,366.308 775,380.5C 769.032,391.018 760.866,393.185 750.5,387C 740.737,374.245 743.07,364.411 757.5,357.5 Z"/></g>
<g><path style="opacity:1" fill="#172428" d="M 472.5,410.5 C 478.087,411.591 480.254,414.924 479,420.5C 459.721,440.781 437.388,456.781 412,468.5C 408.483,467.496 406.317,465.163 405.5,461.5C 406.313,460.186 407.313,459.019 408.5,458C 433.366,446.753 454.7,430.92 472.5,410.5 Z"/></g>
<g><path style="opacity:1" fill="#172328" d="M 542.5,412.5 C 545.271,412.421 547.937,412.921 550.5,414C 575.856,439.006 605.523,457.006 639.5,468C 642.201,471.534 641.867,474.867 638.5,478C 636.5,478.667 634.5,478.667 632.5,478C 598.552,464.954 568.052,446.454 541,422.5C 537.233,418.35 537.733,415.017 542.5,412.5 Z"/></g>
<g><path style="opacity:0.102" fill="#92ebd4" d="M 704.5,427.5 C 708.316,425.649 711.316,426.649 713.5,430.5C 713.058,431.739 712.391,432.739 711.5,433.5C 711.315,431.804 710.481,430.471 709,429.5C 706.602,432.455 705.102,432.122 704.5,428.5C 705.833,428.167 705.833,427.833 704.5,427.5 Z"/></g>
<g><path style="opacity:0.004" fill="#93e9da" d="M 704.5,435.5 C 706.292,435.366 707.958,435.699 709.5,436.5C 707.662,437.678 705.995,437.345 704.5,435.5 Z"/></g>
<g><path style="opacity:1" fill="#2fd9cd" d="M 691.5,437.5 C 694.899,439.388 697.899,441.888 700.5,445C 704.639,447.856 708.972,448.19 713.5,446C 716.029,443.971 718.696,442.138 721.5,440.5C 758.914,443.208 796.581,444.874 834.5,445.5C 834.403,451.133 835.07,456.633 836.5,462C 836.167,462.333 835.833,462.667 835.5,463C 825.668,463.535 815.835,464.035 806,464.5C 770.136,462.888 734.303,463.221 698.5,465.5C 693.177,464.559 688.177,462.726 683.5,460C 673,453.918 662.666,447.584 652.5,441C 663.785,439.783 675.118,439.116 686.5,439C 688.382,438.802 690.048,438.302 691.5,437.5 Z"/></g>
<g><path style="opacity:1" fill="#2ed9cd" d="M 326.5,439.5 C 339.587,439.835 352.587,440.668 365.5,442C 364.167,443.333 362.833,444.667 361.5,446C 350.167,451.667 338.833,457.333 327.5,463C 324.246,464.842 320.746,465.675 317,465.5C 273.488,464.396 229.988,463.896 186.5,464C 185.919,463.107 185.585,462.107 185.5,461C 186.2,455.826 186.867,450.659 187.5,445.5C 222.558,445.692 257.558,444.359 292.5,441.5C 297.83,440.507 302.164,442.007 305.5,446C 313.975,449.234 320.975,447.068 326.5,439.5 Z"/></g>
<g><path style="opacity:1" fill="#48cb7f" d="M 507.5,448.5 C 508.93,448.421 510.264,448.754 511.5,449.5C 516.317,453.74 521.317,457.74 526.5,461.5C 528.194,463.554 529.361,465.888 530,468.5C 530.5,490.831 530.667,513.164 530.5,535.5C 516.921,535.823 503.421,535.49 490,534.5C 489.333,510.167 489.333,485.833 490,461.5C 495.812,457.024 501.645,452.691 507.5,448.5 Z"/></g>
<g><path style="opacity:0.424" fill="#7cc296" d="M 369.5,455.5 C 368.198,457.822 366.198,459.155 363.5,459.5C 365.147,457.674 367.147,456.34 369.5,455.5 Z"/></g>
<g><path style="opacity:1" fill="#172529" d="M 384.5,465.5 C 387.572,465.183 390.572,465.516 393.5,466.5C 394.167,468.167 394.833,469.833 395.5,471.5C 391.42,475.875 386.42,478.042 380.5,478C 374.347,471.445 375.681,467.278 384.5,465.5 Z"/></g>
<g><path style="opacity:1" fill="#6e7f7b" d="M 879.5,462.5 C 880.289,462.783 880.956,463.283 881.5,464C 880.74,465.441 880.074,466.941 879.5,468.5C 879.043,469.298 878.376,469.631 877.5,469.5C 878.939,467.412 879.606,465.079 879.5,462.5 Z"/></g>
<g><path style="opacity:1" fill="#2ed9cd" d="M 193.5,474.5 C 231.837,474.887 270.171,475.554 308.5,476.5C 305.986,485.029 308.319,492.195 315.5,498C 331.02,507.256 347.853,511.756 366,511.5C 404.534,508.878 439.701,496.712 471.5,475C 472.448,474.517 473.448,474.351 474.5,474.5C 475.428,495.147 475.762,515.814 475.5,536.5C 379.135,536.608 282.802,536.275 186.5,535.5C 185.434,524.944 184.434,514.444 183.5,504C 188.961,503.081 194.461,502.581 200,502.5C 217.494,503.186 234.994,503.686 252.5,504C 255.207,505.057 258.04,505.557 261,505.5C 271.845,503.32 282.845,502.986 294,504.5C 298.33,504.564 301.163,502.564 302.5,498.5C 301.005,495.82 298.672,494.32 295.5,494C 285.833,493.667 276.167,493.333 266.5,493C 262.292,490.035 257.959,490.035 253.5,493C 230.168,493.061 206.835,492.727 183.5,492C 183.301,486.626 183.301,481.126 183.5,475.5C 187.042,475.813 190.375,475.479 193.5,474.5 Z"/></g>
<g><path style="opacity:1" fill="#2ed9cd" d="M 706.5,475.5 C 750.067,474.363 793.734,474.363 837.5,475.5C 837.5,481.167 837.5,486.833 837.5,492.5C 819.491,492.357 801.491,492.691 783.5,493.5C 779.5,493.333 775.5,493.167 771.5,493C 765.318,488.365 759.318,488.699 753.5,494C 744.833,494.333 736.167,494.667 727.5,495C 723.554,496.72 722.221,499.553 723.5,503.5C 733.817,504.332 744.151,504.832 754.5,505C 756.518,507.121 759.018,508.288 762,508.5C 766.131,507.682 769.964,506.182 773.5,504C 794.848,503.751 816.181,503.251 837.5,502.5C 837.583,513.516 837.249,524.516 836.5,535.5C 739.76,535.623 642.76,535.623 545.5,535.5C 545.167,515.489 545.5,495.489 546.5,475.5C 586.534,503.79 630.867,514.957 679.5,509C 693.087,507.728 703.254,501.228 710,489.5C 711.256,484.139 710.089,479.472 706.5,475.5 Z"/></g>
<g><path style="opacity:1" fill="#182729" d="M 507.5,483.5 C 509.582,483.472 511.416,484.139 513,485.5C 514.954,492.514 514.954,499.514 513,506.5C 509.552,508.988 506.552,508.322 504,504.5C 503.333,499.167 503.333,493.833 504,488.5C 504.697,486.416 505.864,484.749 507.5,483.5 Z"/></g>
<g><path style="opacity:1" fill="#1b262c" d="M 550.5,567.5 C 556.217,567.774 560.384,570.44 563,575.5C 563.193,598.02 563.693,620.52 564.5,643C 562.667,648.833 558.833,652.667 553,654.5C 547.534,653.701 543.868,650.701 542,645.5C 541.333,622.5 541.333,599.5 542,576.5C 543.688,572.315 546.521,569.315 550.5,567.5 Z"/></g>
<g><path style="opacity:1" fill="#1a262e" d="M 485.5,568.5 C 501.927,565.103 509.26,571.603 507.5,588C 509.897,605.1 502.564,612.933 485.5,611.5C 485.5,597.167 485.5,582.833 485.5,568.5 Z"/></g>
<g><path style="opacity:1" fill="#1b262b" d="M 811.5,577.5 C 814.911,592.907 817.578,608.574 819.5,624.5C 813.833,624.5 808.167,624.5 802.5,624.5C 804.109,608.461 807.109,592.795 811.5,577.5 Z"/></g>
<g><path style="opacity:1" fill="#1b262d" d="M 648.5,568.5 C 659.094,567.133 664.427,571.799 664.5,582.5C 664.197,603.486 664.031,624.486 664,645.5C 660.173,653.806 654.34,655.639 646.5,651C 643.786,648.57 642.119,645.57 641.5,642C 641.377,620.955 641.544,599.788 642,578.5C 643.178,574.495 645.345,571.162 648.5,568.5 Z"/></g>
<g><path style="opacity:1" fill="#1f2a30" d="M 200.5,568.5 C 217.853,565.36 225.187,572.526 222.5,590C 224.765,606.898 217.432,615.064 200.5,614.5C 200.492,599.135 200.492,583.802 200.5,568.5 Z"/></g>
<g><path style="opacity:1" fill="#19c6a4" d="M 413.5,682.5 C 419.834,683.792 426.167,683.792 432.5,682.5C 433.308,682.808 433.975,683.308 434.5,684C 432.951,685.214 431.785,686.714 431,688.5C 419.643,698.858 408.643,709.525 398,720.5C 387.889,713.985 379.223,715.652 372,725.5C 368.1,741.374 374.1,751.041 390,754.5C 399.041,754.488 404.708,750.155 407,741.5C 407.042,736.443 407.208,731.443 407.5,726.5C 422.015,712.151 436.681,697.985 451.5,684C 459.137,682.169 466.804,682.003 474.5,683.5C 474.046,686.14 472.879,688.473 471,690.5C 459.333,700.833 448.333,711.833 438,723.5C 436.441,725.217 435.608,727.217 435.5,729.5C 419.602,731.58 413.102,740.58 416,756.5C 422.038,772.066 432.538,776.233 447.5,769C 455.491,763.026 458.325,755.193 456,745.5C 468.32,735.511 480.32,725.178 492,714.5C 492.5,704.172 492.666,693.839 492.5,683.5C 496.167,683.5 499.833,683.5 503.5,683.5C 504.359,703.183 504.526,722.849 504,742.5C 491.212,751.175 488.545,762.175 496,775.5C 504.15,783.609 512.983,784.442 522.5,778C 529.085,772.643 531.251,765.809 529,757.5C 527.645,752.62 525.145,748.453 521.5,745C 519.975,743.991 518.308,743.491 516.5,743.5C 516.5,723.5 516.5,703.5 516.5,683.5C 520.198,683.448 523.865,683.114 527.5,682.5C 528.313,692.19 528.313,701.857 527.5,711.5C 527.887,713.274 528.553,714.941 529.5,716.5C 538.349,725.183 547.349,733.683 556.5,742C 558.65,743.411 560.984,744.245 563.5,744.5C 561.009,759.335 567.009,768.668 581.5,772.5C 598.089,770.415 605.589,761.082 604,744.5C 600.948,734.947 594.448,729.614 584.5,728.5C 582.192,725.025 579.692,721.692 577,718.5C 566.53,707.029 555.697,695.863 544.5,685C 551.767,683.518 559.1,682.851 566.5,683C 581.971,697.471 597.138,712.304 612,727.5C 608.267,742.701 614.1,751.701 629.5,754.5C 640.223,752.774 646.223,746.441 647.5,735.5C 646.757,721.325 639.424,714.825 625.5,716C 623.481,716.45 621.648,717.283 620,718.5C 608.471,706.637 596.638,695.137 584.5,684C 596.167,683.333 607.833,683.333 619.5,684C 620.833,684.667 622.167,685.333 623.5,686C 632.542,694.045 641.876,701.711 651.5,709C 648.575,723.633 654.575,731.8 669.5,733.5C 680.788,731.376 687.121,724.542 688.5,713C 685.59,695.714 675.923,690.047 659.5,696C 658.333,697.167 657.167,698.333 656,699.5C 650.86,694.36 645.694,689.194 640.5,684C 656.167,683.333 671.833,683.333 687.5,684C 689.9,685.701 692.567,686.534 695.5,686.5C 699.415,685.383 703.415,684.55 707.5,684C 720.846,683.167 734.179,683.334 747.5,684.5C 730.106,707.067 709.439,725.9 685.5,741C 596.648,795.268 502.982,805.935 404.5,773C 362.067,758.463 324.734,735.796 292.5,705C 287,699.5 281.5,694 276,688.5C 274.991,686.975 274.491,685.308 274.5,683.5C 310.538,684.103 346.538,684.27 382.5,684C 375.688,689.311 369.021,694.811 362.5,700.5C 356.667,693.417 349.334,691.583 340.5,695C 330.884,700.411 327.384,708.578 330,719.5C 335.226,730.196 343.726,734.696 355.5,733C 366.646,727.806 371.313,718.973 369.5,706.5C 375.902,702.604 381.568,697.771 386.5,692C 388.332,691.252 389.999,690.252 391.5,689C 398.956,686.808 406.289,684.641 413.5,682.5 Z M 668.5,704.5 C 665.972,705.508 663.805,707.174 662,709.5C 660.506,714.526 661.673,718.692 665.5,722C 672.167,723.333 676.167,720.666 677.5,714C 677.021,708.356 674.021,705.189 668.5,704.5 Z M 344.5,705.5 C 341.721,709.019 340.888,713.019 342,717.5C 346.409,723.406 351.075,723.74 356,718.5C 357.648,709.071 353.815,704.738 344.5,705.5 Z M 386.5,727.5 C 383.51,729.011 381.844,731.511 381.5,735C 384.123,743.413 388.623,744.913 395,739.5C 397.135,732.119 394.301,728.119 386.5,727.5 Z M 625.5,727.5 C 622.647,729.868 621.481,732.868 622,736.5C 625.795,744.033 630.129,744.367 635,737.5C 636.494,729.826 633.328,726.493 625.5,727.5 Z M 583.5,740.5 C 575.016,743.307 572.683,748.807 576.5,757C 580.878,760.487 585.045,760.32 589,756.5C 593.565,748.918 591.732,743.585 583.5,740.5 Z M 431.5,741.5 C 424.871,748.553 425.871,754.72 434.5,760C 440.761,761.078 444.094,758.411 444.5,752C 443.221,744.543 438.888,741.043 431.5,741.5 Z M 508.5,752.5 C 506.559,753.674 505.059,755.341 504,757.5C 502.488,763.67 504.821,767.67 511,769.5C 516.871,767.959 518.871,764.292 517,758.5C 515.828,754.163 512.994,752.163 508.5,752.5 Z"/></g>
<g><path style="opacity:1" fill="#2bb8a2" d="M 540.5,697.5 C 551.668,708.503 562.335,720.003 572.5,732C 570.93,734.927 568.596,735.927 565.5,735C 557.667,727.167 549.833,719.333 542,711.5C 539.297,707.077 538.797,702.411 540.5,697.5 Z"/></g>
<g><path style="opacity:1" fill="#1dcdaf" d="M 479.5,696.5 C 480.647,700.646 480.814,704.98 480,709.5C 470.279,719.057 460.112,728.057 449.5,736.5C 446.979,734.74 446.146,732.407 447,729.5C 457.366,717.968 468.2,706.968 479.5,696.5 Z"/></g>
<g><path style="opacity:0.133" fill="#9cf8e7" d="M 352.5,713.5 C 353.5,713.5 354.5,713.5 355.5,713.5C 354.754,717.31 353.754,717.31 352.5,713.5 Z"/></g>
<g><path style="opacity:0.263" fill="#6b706f" d="M 288.5,733.5 C 289.573,734.251 289.74,735.251 289,736.5C 288.517,735.552 288.351,734.552 288.5,733.5 Z"/></g>
<g><path style="opacity:0.031" fill="#60635d" d="M 296.5,735.5 C 295.833,734.167 295.833,734.167 296.5,735.5 Z"/></g>
</svg>
